<?xml version="1.0" encoding="utf-8"?>
<!-- Generator: Adobe Illustrator 21.1.0, SVG Export Plug-In . SVG Version: 6.00 Build 0)  -->
<svg version="1.1" id="Слой_1" xmlns="http://www.w3.org/2000/svg" xmlns:xlink="http://www.w3.org/1999/xlink" x="0px" y="0px"
	 viewBox="0 0 512 512" style="enable-background:new 0 0 512 512;" xml:space="preserve">
<style type="text/css">
	.st0{display:none;fill:#F9F5E9;}
</style>
<path class="st0" d="M336.6,313.6h5.4l7.2-95.8c-6.8-2.8-13.6-5.4-20.3-7.5L336.6,313.6z"/>
<path class="st0" d="M308.5,313.6h5.4l7.9-105.4c-7.1-2-14.3-3.7-21.6-5.1L308.5,313.6z"/>
<path class="st0" d="M280.4,313.6h5.4l8.3-111.5c-7.3-1.2-14.8-2-22.3-2.5L280.4,313.6z"/>
<path class="st0" d="M224.2,313.6h5.4l8.5-113.9c-7.4,0.5-14.9,1.4-22.2,2.7L224.2,313.6z"/>
<path class="st0" d="M111.9,313.6h5.4l5.6-74.4c-5.4,3.6-10.7,7.4-15.7,11.4L111.9,313.6z"/>
<path class="st0" d="M168,313.6h5.4l7.7-102.7c-7,2.3-13.7,4.8-20.2,7.6L168,313.6z"/>
<path class="st0" d="M139.9,313.6h5.4l6.8-91.1c-6.2,3-12.3,6.2-18.3,9.8L139.9,313.6z"/>
<path class="st0" d="M196.1,313.6h5.4l8.2-110.1c-7.1,1.4-14.3,3.1-21.5,5.2L196.1,313.6z"/>
<path class="st0" d="M364.6,313.6h5.4l6.2-82.4c-6-3.4-12.1-6.7-18.5-9.6L364.6,313.6z"/>
<path class="st0" d="M243.8,199.4l8.5,114.2h5.4l8.5-114.3C257.9,198.9,252.3,198.9,243.8,199.4z"/>
<path class="st0" d="M83.8,313.6h5.4l3.8-51c-4.1,3.8-8.1,7.8-12.1,12L83.8,313.6z"/>
<path class="st0" d="M420.8,313.6h5.4l3.1-40.9c-3.9-4-8.1-8-12.4-12L420.8,313.6z"/>
<path class="st0" d="M392.7,313.6h5.4l4.8-64.5c-5-3.9-10.3-7.6-15.9-11.2L392.7,313.6z"/>
<path class="st0" d="M62.8,313.6l0.8-18.9c-4,5.4-9.1,13.1-12.6,18.9H62.8z"/>
<path class="st0" d="M447.2,313.6H461c-4.2-6.8-10-15.5-14.8-21.8L447.2,313.6z"/>
<path d="M296.7,52.8c38.6,0,71.4,14.7,98.6,44.1c27.5,29,41.3,64.8,41.3,107.2s-13.8,78.3-41.3,107.7c-27.1,29-60,43.6-98.6,43.6
	c-40.1,0-71.1-13.9-92.8-41.8V462H130V60.8h73.9v33.8C225.7,66.8,256.6,52.8,296.7,52.8z M226.3,262.6
	c14.9,14.9,33.8,22.4,56.7,22.4c22.9,0,41.8-7.5,56.7-22.4c15.3-15.3,22.9-34.8,22.9-58.5s-7.6-43-22.9-57.9
	c-14.9-15.3-33.8-22.9-56.7-22.9c-22.9,0-41.8,7.6-56.7,22.9c-14.9,14.9-22.4,34.2-22.4,57.9S211.4,247.3,226.3,262.6z"/>
</svg>
